<svg width="586" height="608" viewBox="0 0 586 608" fill="none" xmlns="http://www.w3.org/2000/svg">
<path d="M0.00561523 181.511H51.8727V488.239L203.183 506.312L197.159 550.672L0.00561523 527.872V181.511Z" fill="#FD3939"/>
<path d="M246.97 105.027L306.817 114.132L337.935 121.417L337.935 275.112L390.24 174.975L426.909 183.19L360.679 309.712L426.909 439.006L393.794 454.302L337.935 342.855L337.935 479.433L298.835 499.828L298.835 137.442L263.727 131.614L49.0759 200.814L-7.90012e-06 181.865L246.97 105.027Z" fill="#FD3939"/>
<path d="M83.7906 209.254L138 191.5L229.018 381V165.117L268.916 150.549V399.307V559.983L229.018 554.095V477.833L126.082 272.927V477.833L83.7906 467.427V209.254Z" fill="white"/>
<path d="M373.729 128.971L497.373 156.016L497.373 464.136L416.139 507.113L356.691 535.885L300.668 563.269L268.916 559.983L268.916 509.05L300.668 512.336L371.316 478.381L449.653 442.235L449.653 453.574L449.653 179.904L344.481 156.016L373.729 128.971Z" fill="#FCFCFC"/>
</svg>
